<?xml version="1.0" encoding="utf-8"?>
<!-- Generator: Adobe Illustrator 19.0.0, SVG Export Plug-In . SVG Version: 6.00 Build 0)  -->
<svg version="1.1" id="Capa_1" xmlns="http://www.w3.org/2000/svg" xmlns:xlink="http://www.w3.org/1999/xlink" x="0px" y="0px"
	 viewBox="0 0 841.9 313.5" style="enable-background:new 0 0 841.9 313.5;" xml:space="preserve">
<g id="XMLID_20_">
	<g>
		<path fill="#FFFFFF" d="M179.6,231.2h-3.3v-28.6l-7.5,28.6h-3.1l-7.5-28.6v28.6H155v-33.6h5.2l7.1,28l7.1-28h5.2V231.2z"/>
		<path fill="#FFFFFF" d="M195.7,231.8c-3,0-5.3-0.8-6.8-2.3c-1.5-1.5-2.5-3.3-2.9-5.3c-0.4-2-0.6-4.4-0.6-7.1v-19.5h3.5V217
			c0,4.4,0.6,7.3,1.7,8.7c1.2,1.4,2.8,2.1,5.1,2.1c2.2,0,3.9-0.7,5.1-2.1c1.2-1.4,1.7-4.3,1.7-8.7v-19.4h3.5V217
			c0,4.1-0.4,7.1-1.1,9c-0.8,1.9-1.9,3.4-3.4,4.3C199.9,231.3,198,231.8,195.7,231.8z"/>
		<path fill="#FFFFFF" d="M230.4,201.6h-8.6v29.6h-3.5v-29.6h-8.6v-4h20.7V201.6z"/>
		<path fill="#FFFFFF" d="M244.4,231.8c-3,0-5.3-0.8-6.8-2.3c-1.5-1.5-2.5-3.3-2.9-5.3c-0.4-2-0.6-4.4-0.6-7.1v-19.5h3.5V217
			c0,4.4,0.6,7.3,1.7,8.7c1.2,1.4,2.8,2.1,5.1,2.1c2.2,0,3.9-0.7,5.1-2.1c1.2-1.4,1.7-4.3,1.7-8.7v-19.4h3.5V217
			c0,4.1-0.4,7.1-1.1,9c-0.8,1.9-1.9,3.4-3.4,4.3S246.7,231.8,244.4,231.8z"/>
		<path fill="#FFFFFF" d="M282,231.2h-3.9l-3-10.2h-10.9l-2.9,10.2h-3.7l10-33.6h3.7L282,231.2z M274,217.5l-4.6-15.6l-4.4,15.6H274z"
			/>
		<path fill="#FFFFFF" d="M301,231.2h-16.2v-33.6h3.5v29.6H301V231.2z"/>
		<path fill="#FFFFFF" d="M324.6,197.6h8.3c8.9,0,13.3,5.5,13.3,16.6c0,11.3-4.4,17-13.3,17h-8.3V197.6z M328,227.2h4.8
			c3.8,0,6.4-1.1,7.8-3.4c1.4-2.3,2.1-5.5,2.1-9.6c0-4-0.7-7.1-2.1-9.3c-1.4-2.2-4-3.3-7.8-3.3H328V227.2z"/>
		<path fill="#FFFFFF" d="M370.4,231.2h-19.5v-33.6h18.9v4h-15.4v10.3h14.4v4h-14.4v11.4h16V231.2z"/>
		<path fill="#FFFFFF" d="M404.5,231.8c-3.7,0-6.4-1.1-8.3-3.2c-1.8-2.1-2.8-4.9-2.9-8.2h3.3c0.2,2.5,1,4.4,2.4,5.6s3.2,1.8,5.2,1.8
			c1.9,0,3.5-0.5,4.7-1.5c1.2-1,1.8-2.4,1.8-4.2c0-1.9-0.6-3.2-1.8-4c-1.2-0.8-3.3-1.7-6.3-2.5c-3-0.8-5.1-2-6.4-3.4
			c-1.3-1.5-2-3.4-2-5.8c0-2.7,0.8-5,2.5-6.7c1.7-1.7,3.9-2.6,6.7-2.6c2.9,0,5.3,0.9,7.1,2.6c1.8,1.8,2.8,4.2,2.9,7.5h-3.4
			c-0.3-4.1-2.5-6.1-6.5-6.1c-1.9,0-3.4,0.5-4.5,1.4c-1.1,0.9-1.6,2.2-1.6,3.7c0,1.4,0.4,2.5,1.3,3.2c0.8,0.7,2.4,1.4,4.8,2
			c2.3,0.7,4.2,1.3,5.5,2c1.4,0.6,2.5,1.6,3.5,3c1,1.4,1.5,3.2,1.5,5.4c0,2.9-0.9,5.3-2.7,7.2C409.7,230.8,407.4,231.8,404.5,231.8z
			"/>
		<path fill="#FFFFFF" d="M438.5,231.2H419v-33.6h18.9v4h-15.4v10.3h14.4v4h-14.4v11.4h16V231.2z"/>
		<path fill="#FFFFFF" d="M465.2,231.2h-3.7l-2.5-9c-0.4-1.6-1.2-2.9-2.2-3.9c-1-1-2.2-1.5-3.5-1.5h-6.4v14.4h-3.5v-33.6H455
			c2,0,3.7,0.3,5,0.8c1.3,0.5,2.3,1.6,3.1,3.2c0.8,1.6,1.2,3.4,1.2,5.5c0,2.3-0.5,4.3-1.6,5.8c-1,1.6-2.5,2.6-4.3,3.1v0.1
			c1.8,0.7,3.2,2.8,4.2,6.1L465.2,231.2z M446.8,212.8h7.7c2.2,0,3.7-0.4,4.7-1.3c1-0.9,1.5-2.4,1.5-4.5c0-3.8-1.9-5.7-5.6-5.7h-8.3
			V212.8z"/>
		<path fill="#FFFFFF" d="M490.9,197.6l-10.2,33.6h-3.6L467,197.6h3.7l8.3,28.8l8.3-28.8H490.9z"/>
		<path fill="#FFFFFF" d="M498,231.2h-3.5v-33.6h3.5V231.2z"/>
		<path fill="#FFFFFF" d="M515.2,231.8c-3.7,0-6.6-1.6-8.9-4.7c-2.2-3.1-3.3-7.4-3.3-12.7s1.1-9.6,3.3-12.7c2.2-3.1,5.2-4.7,8.9-4.7
			c2.8,0,5.3,1,7.3,3c2,2,3.1,4.6,3.4,7.8h-3.6c-0.1-2.1-0.9-3.8-2.1-5.1c-1.3-1.3-2.9-1.9-4.9-1.9c-2.7,0-4.7,1.2-6.3,3.5
			c-1.5,2.3-2.3,5.7-2.3,10.1c0,4.3,0.8,7.7,2.3,10c1.5,2.4,3.6,3.5,6.2,3.5c2,0,3.7-0.6,5-1.9c1.3-1.3,2-3.1,2.1-5.5h3.6
			c-0.2,3.6-1.3,6.3-3.3,8.3C520.6,230.8,518.2,231.8,515.2,231.8z"/>
		<path fill="#FFFFFF" d="M534.5,231.2h-3.5v-33.6h3.5V231.2z"/>
		<path fill="#FFFFFF" d="M552.1,197c3.7,0,6.7,1.6,9,4.8c2.3,3.2,3.5,7.4,3.5,12.6c0,5.2-1.2,9.4-3.5,12.6c-2.3,3.2-5.3,4.8-9,4.8
			c-3.7,0-6.7-1.6-9-4.8c-2.3-3.2-3.5-7.4-3.5-12.6c0-5.2,1.2-9.4,3.5-12.6C545.4,198.6,548.4,197,552.1,197z M552.1,228
			c2.6,0,4.8-1.2,6.4-3.6c1.7-2.4,2.5-5.7,2.5-10c0-4.3-0.8-7.6-2.5-10c-1.7-2.4-3.8-3.6-6.4-3.6c-2.6,0-4.8,1.2-6.5,3.6
			c-1.7,2.4-2.5,5.7-2.5,10c0,4.3,0.8,7.6,2.5,10C547.3,226.8,549.5,228,552.1,228z"/>
		<path fill="#FFFFFF" d="M579,231.8c-3.7,0-6.4-1.1-8.3-3.2c-1.8-2.1-2.8-4.9-2.9-8.2h3.3c0.2,2.5,1,4.4,2.4,5.6s3.2,1.8,5.2,1.8
			c1.9,0,3.5-0.5,4.7-1.5c1.2-1,1.8-2.4,1.8-4.2c0-1.9-0.6-3.2-1.8-4c-1.2-0.8-3.3-1.7-6.3-2.5c-3-0.8-5.1-2-6.4-3.4
			c-1.3-1.5-2-3.4-2-5.8c0-2.7,0.8-5,2.5-6.7c1.7-1.7,3.9-2.6,6.7-2.6c2.9,0,5.3,0.9,7.1,2.6c1.8,1.8,2.8,4.2,2.9,7.5h-3.4
			c-0.3-4.1-2.5-6.1-6.5-6.1c-1.9,0-3.4,0.5-4.5,1.4c-1.1,0.9-1.6,2.2-1.6,3.7c0,1.4,0.4,2.5,1.3,3.2c0.8,0.7,2.4,1.4,4.8,2
			c2.3,0.7,4.2,1.3,5.5,2c1.4,0.6,2.5,1.6,3.5,3c1,1.4,1.5,3.2,1.5,5.4c0,2.9-0.9,5.3-2.7,7.2C584.2,230.8,581.9,231.8,579,231.8z"
			/>
		<path fill="#FFFFFF" d="M634.4,231.2h-3.9l-3-10.2h-10.9l-2.9,10.2H610l10-33.6h3.7L634.4,231.2z M626.4,217.5l-4.6-15.6l-4.4,15.6
			H626.4z"/>
		<path fill="#FFFFFF" d="M653.5,231.2h-16.2v-33.6h3.5v29.6h12.7V231.2z"/>
		<path fill="#FFFFFF" d="M677,197.6h9.8c2.1,0,3.9,0.3,5.4,0.8c1.4,0.5,2.6,1.6,3.4,3.3c0.8,1.7,1.3,3.6,1.3,5.7c0,3.4-0.8,6-2.5,7.7
			c-1.7,1.8-4.1,2.6-7.3,2.6h-6.6v13.4H677V197.6z M680.4,213.8h6.6c2.2,0,3.8-0.5,4.8-1.6s1.4-2.6,1.4-4.6c0-1.3-0.3-2.5-0.8-3.6
			c-0.5-1-1.2-1.7-2-2s-2-0.4-3.5-0.4h-6.5V213.8z"/>
		<path fill="#FFFFFF" d="M712.7,197c3.7,0,6.7,1.6,9,4.8c2.3,3.2,3.5,7.4,3.5,12.6c0,5.2-1.2,9.4-3.5,12.6c-2.3,3.2-5.3,4.8-9,4.8
			c-3.7,0-6.7-1.6-9-4.8c-2.3-3.2-3.5-7.4-3.5-12.6c0-5.2,1.2-9.4,3.5-12.6S709,197,712.7,197z M712.6,228c2.6,0,4.8-1.2,6.4-3.6
			s2.5-5.7,2.5-10c0-4.3-0.8-7.6-2.5-10c-1.7-2.4-3.8-3.6-6.4-3.6c-2.6,0-4.8,1.2-6.5,3.6c-1.7,2.4-2.5,5.7-2.5,10
			c0,4.3,0.8,7.6,2.5,10S710,228,712.6,228z"/>
		<path fill="#FFFFFF" d="M745.9,231.2h-16.2v-33.6h3.5v29.6h12.7V231.2z"/>
		<path fill="#FFFFFF" d="M754,231.2h-3.5v-33.6h3.5V231.2z"/>
		<path fill="#FFFFFF" d="M771.1,231.8c-3.7,0-6.6-1.6-8.9-4.7c-2.2-3.1-3.3-7.4-3.3-12.7s1.1-9.6,3.3-12.7c2.2-3.1,5.2-4.7,8.9-4.7
			c2.8,0,5.3,1,7.3,3c2,2,3.1,4.6,3.4,7.8h-3.6c-0.1-2.1-0.9-3.8-2.1-5.1c-1.3-1.3-2.9-1.9-4.9-1.9c-2.7,0-4.7,1.2-6.3,3.5
			c-1.5,2.3-2.3,5.7-2.3,10.1c0,4.3,0.8,7.7,2.3,10c1.5,2.4,3.6,3.5,6.2,3.5c2,0,3.7-0.6,5-1.9c1.3-1.3,2-3.1,2.1-5.5h3.6
			c-0.2,3.6-1.3,6.3-3.3,8.3C776.6,230.8,774.1,231.8,771.1,231.8z"/>
		<path fill="#FFFFFF" d="M793.3,189l-3.9,6.4h-2.6l2.4-6.4H793.3z M790.5,231.2H787v-33.6h3.5V231.2z"/>
		<path fill="#FFFFFF" d="M818.2,231.2h-3.9l-3-10.2h-10.9l-2.9,10.2h-3.7l10-33.6h3.7L818.2,231.2z M810.2,217.5l-4.6-15.6l-4.4,15.6
			H810.2z"/>
	</g>
	<rect id="XMLID_135_" x="154" y="254.5" fill="#E72F3A" width="514.5" height="9.4"/>
	<rect id="XMLID_134_" x="155.8" y="263.9" fill="#E5DF00" width="514.5" height="9.4"/>
	<rect id="XMLID_133_" x="154" y="273.2" fill="#008B3E" width="514.5" height="9.4"/>
	<g>
		<rect id="XMLID_132_" x="795.2" y="254.5" fill="#009346" width="21.1" height="4"/>
		<rect id="XMLID_131_" x="774.1" y="254.5" fill="#1F76BB" width="21.1" height="4"/>
		<rect id="XMLID_130_" x="753" y="254.5" fill="#643189" width="21.1" height="4"/>
		<rect id="XMLID_129_" x="731.8" y="254.5" fill="#E52528" width="21.1" height="4"/>
		<rect id="XMLID_128_" x="710.7" y="254.5" fill="#F8AE41" width="21.1" height="4"/>
		<rect id="XMLID_127_" x="689.6" y="254.5" fill="#FAEA27" width="21.1" height="4"/>
		<rect id="XMLID_126_" x="668.5" y="254.5" fill="#FFFFFF" width="21.1" height="4"/>
		<rect id="XMLID_125_" x="668.5" y="258.5" fill="#009346" width="21.1" height="4"/>
		<rect id="XMLID_124_" x="668.5" y="262.5" fill="#1F76BB" width="21.1" height="4"/>
		<rect id="XMLID_123_" x="668.5" y="266.5" fill="#643189" width="21.1" height="4"/>
		<rect id="XMLID_122_" x="668.5" y="270.5" fill="#E52528" width="21.1" height="4"/>
		<rect id="XMLID_121_" x="668.5" y="274.6" fill="#F8AE41" width="21.1" height="4"/>
		<rect id="XMLID_120_" x="668.5" y="278.6" fill="#FAEA27" width="21.1" height="4"/>
		<rect id="XMLID_119_" x="689.6" y="278.6" fill="#F8AE41" width="21.1" height="4"/>
		<rect id="XMLID_118_" x="710.7" y="278.6" fill="#E52528" width="21.1" height="4"/>
		<rect id="XMLID_117_" x="731.8" y="278.6" fill="#643189" width="21.1" height="4"/>
		<rect id="XMLID_116_" x="731.8" y="274.6" fill="#1F76BB" width="21.1" height="4"/>
		<rect id="XMLID_115_" x="710.7" y="274.6" fill="#643189" width="21.1" height="4"/>
		<rect id="XMLID_114_" x="689.6" y="274.6" fill="#E52528" width="21.1" height="4"/>
		<rect id="XMLID_113_" x="753" y="278.6" fill="#1F76BB" width="21.1" height="4"/>
		<rect id="XMLID_112_" x="774.1" y="278.6" fill="#009346" width="21.1" height="4"/>
		<rect id="XMLID_111_" x="795.2" y="278.6" fill="#FFFFFF" width="21.1" height="4"/>
		<rect id="XMLID_110_" x="689.6" y="258.5" fill="#FFFFFF" width="21.1" height="4"/>
		<rect id="XMLID_109_" x="689.6" y="270.5" fill="#643189" width="21.1" height="4"/>
		<rect id="XMLID_108_" x="710.7" y="270.5" fill="#1F76BB" width="21.1" height="4"/>
		<rect id="XMLID_107_" x="731.8" y="270.5" fill="#009346" width="21.1" height="4"/>
		<rect id="XMLID_106_" x="753" y="270.5" fill="#FFFFFF" width="21.1" height="4"/>
		<rect id="XMLID_105_" x="774.1" y="270.5" fill="#FAEA27" width="21.1" height="4"/>
		<rect id="XMLID_104_" x="774.1" y="274.6" fill="#FFFFFF" width="21.1" height="4"/>
		<rect id="XMLID_103_" x="753" y="274.6" fill="#009346" width="21.1" height="4"/>
		<rect id="XMLID_102_" x="731.8" y="266.5" fill="#FFFFFF" width="21.1" height="4"/>
		<rect id="XMLID_101_" x="710.7" y="258.5" fill="#FAEA27" width="21.1" height="4"/>
		<rect id="XMLID_100_" x="710.7" y="262.5" fill="#FFFFFF" width="21.1" height="4"/>
		<rect id="XMLID_99_" x="689.6" y="262.5" fill="#009346" width="21.1" height="4"/>
		<rect id="XMLID_98_" x="689.6" y="266.5" fill="#1F76BB" width="21.1" height="4"/>
		<rect id="XMLID_97_" x="710.7" y="266.5" fill="#009346" width="21.1" height="4"/>
		<rect id="XMLID_96_" x="731.8" y="258.5" fill="#F8AE41" width="21.1" height="4"/>
		<rect id="XMLID_95_" x="731.8" y="262.5" fill="#FAEA27" width="21.1" height="4"/>
		<rect id="XMLID_94_" x="753" y="258.5" fill="#E52528" width="21.1" height="4"/>
		<rect id="XMLID_93_" x="753" y="262.5" fill="#F8AE41" width="21.1" height="4"/>
		<rect id="XMLID_92_" x="753" y="266.5" fill="#FAEA27" width="21.1" height="4"/>
		<rect id="XMLID_91_" x="774.1" y="258.5" fill="#643189" width="21.1" height="4"/>
		<rect id="XMLID_90_" x="774.1" y="262.5" fill="#E52528" width="21.1" height="4"/>
		<rect id="XMLID_89_" x="774.1" y="266.5" fill="#F8AE41" width="21.1" height="4"/>
		<rect id="XMLID_88_" x="795.2" y="258.5" fill="#1F76BB" width="21.1" height="4"/>
		<rect id="XMLID_87_" x="795.2" y="262.5" fill="#643189" width="21.1" height="4"/>
		<rect id="XMLID_86_" x="795.2" y="266.5" fill="#E52528" width="21.1" height="4"/>
		<rect id="XMLID_85_" x="795.2" y="270.5" fill="#F8AE41" width="21.1" height="4"/>
		<rect id="XMLID_84_" x="795.2" y="274.6" fill="#FAEA27" width="21.1" height="4"/>
	</g>
	<g id="XMLID_9_">
		<g>
			<path id="XMLID_53_" fill="#FFFFFF" d="M90.9,211.5v10l-0.5,0.4C78.7,213.8,67,204.7,57,195c-2.1-2-4.2-4-6.4-6
				c-1.9-2-3.8-4.1-5.6-6.1c-5.5-6.1-10.8-12.4-15.9-18.6c-1.6-2.3-3-4.7-4.4-7.2c-5.4-9.7-8.7-20.3-8.4-31.7
				c0.2-2.8,0.7-5.6,1.5-8.4c2.4-8.1,7.6-15.3,16.2-20.3c2.2-1.4,4.5-2.7,6.8-3.8c4.7-2.2,9.7-3.7,14.7-4.5c0,0,0,0,0,0s0,15.1,0,19
				c-26.8,24.7-5,62.8,14.6,84.4c1.5,1.9,3.1,3.7,4.7,5.5C79.8,202.6,85.2,207.4,90.9,211.5z"/>
		</g>
		<g>
			<path id="XMLID_54_" fill="none" stroke="#FFFFFF" stroke-width="0.25" stroke-miterlimit="10" d="M90.9,221.5v-10c-5.8-4.1-11.1-8.9-16-14.2c-1.6-1.8-3.2-3.6-4.7-5.5
				c-19.6-21.6-41.4-59.7-14.6-84.4c0-3.9,0-19,0-19s0,0,0,0c-5,0.8-10,2.3-14.7,4.5c-2.4,1.1-4.7,2.4-6.8,3.8
				c-8.6,5-13.7,12.1-16.2,20.3c-0.8,2.7-1.3,5.5-1.5,8.4c-0.4,11.5,3,22,8.4,31.7c1.3,2.4,2.8,4.8,4.4,7.2
				c5.1,6.2,10.4,12.4,15.9,18.6c1.8,2.1,3.7,4.1,5.6,6.1c2.1,2,4.2,4,6.4,6c10,9.7,21.7,18.8,33.5,26.8"/>
		</g>
	</g>
	<g id="XMLID_8_">
		<g>
			<path id="XMLID_50_" fill="#FFFFFF" d="M103.8,112.9c-1.5,0-4.7,0-4.7,0C92,106,81.8,103,72,100.8c-0.8-2.2-4.6-12.3-4.6-12.3
				c1.1,0.1,2.1,0.3,3.2,0.5C84.8,91.6,96.8,100.2,103.8,112.9z"/>
		</g>
		<g>
			<path id="XMLID_51_" fill="none" stroke="#FFFFFF" stroke-width="0.25" stroke-miterlimit="10" d="M70.6,89c-1-0.2-2.1-0.4-3.2-0.5c0,0,3.8,10.2,4.6,12.3c9.8,2.2,20,5.2,27.1,12.1
				c0,0,3.3,0,4.7,0C96.8,100.2,84.8,91.6,70.6,89z"/>
		</g>
	</g>
	
		<ellipse id="XMLID_83_" transform="matrix(0.9943 0.1062 -0.1062 0.9943 13.1863 -7.2985)" fill="#FFFFFF" stroke="#FFFFFF" stroke-width="0.25" stroke-miterlimit="10" cx="75.1" cy="120.2" rx="6.8" ry="7.2"/>
	<circle id="XMLID_82_" fill="#FFFFFF" stroke="#FFFFFF" stroke-width="0.25" stroke-miterlimit="10" cx="126.7" cy="126.9" r="6.8"/>
	<path id="XMLID_81_" fill="none" stroke="#009062" stroke-miterlimit="10" d="M76.5,136.4"/>
	<path id="XMLID_80_" fill="none" stroke="#009062" stroke-miterlimit="10" d="M67.4,141.9"/>
	<path id="XMLID_79_" fill="#FFFFFF" stroke="#FFFFFF" stroke-width="0.25" stroke-miterlimit="10" d="M65.6,141c0.4-5.3,4.9-9.3,10-9c4.7,0.2,8.7,4.1,9,9v43.4h-19V141"/>
	<path id="XMLID_78_" fill="#FFFFFF" stroke="#FFFFFF" stroke-width="0.25" stroke-miterlimit="10" d="M109.4,138.1c-1.8-2.5-4.7-4.2-7.8-4.4c-4.7-0.3-9.1,2.6-10.7,7.2v43.4h19.9V141
		C110.5,139.9,110,139,109.4,138.1z"/>
	<line id="XMLID_77_" fill="none" stroke="#009062" stroke-miterlimit="10" x1="112.7" y1="141.9" x2="112.7" y2="141.9"/>
	<path id="XMLID_76_" fill="#FFFFFF" stroke="#FFFFFF" stroke-width="0.25" stroke-miterlimit="10" d="M116.3,180.4c0-10.1,0-35.8,0-35.8c1.5-5.6,6.8-9,11.8-8.1c3.9,0.7,7.2,3.9,8.1,8.1v39.8
		h-19.9C116.3,184.4,116.3,182.9,116.3,180.4z"/>
	<path fill="#FFFFFF" d="M102.9,118.9l1.9,0.6"/>
	<g id="XMLID_7_">
		<g>
			<path id="XMLID_40_" fill="#FFFFFF" d="M108.3,120.5c1.9,1.2,2.3,2,2.2,2.5c-0.1,0.5-0.6,0.9-1.5,1.2c-1.7,0.6-4.6,0.7-7.1,0.1
				c-2.5-0.6-4.3-1.9-5.4-2.8c4.7,0.5,11.3,0.9,11.7-0.6C108.3,120.7,108.3,120.6,108.3,120.5z"/>
			<path id="XMLID_39_" fill="#FFFFFF" d="M108.9,115.8c0,0.1,0,0.4-0.3,0.9c-0.2,0.3-0.5,0.6-0.9,1c0-1.2-0.5-2.2-1.1-2.3
				c-0.8-0.1-1.5,1.1-1.7,2.6c0,0.2,0,0.4,0,0.6c-2.5,0.3-5.6,1.3-9.4-0.2c0,0-0.1-0.1-0.1-0.1c0-0.1-0.1-0.2-0.1-0.4
				c0,0,0-0.1,0.1-0.2c0.3-0.8,1.8-0.7,3.2-0.9c1-0.1,2.4-0.5,4.1-1.3c3.1-1.5,4.7-1.4,5.7-0.6c0.1,0.1,0.2,0.2,0.3,0.3
				C108.7,115.2,108.9,115.5,108.9,115.8z"/>
			<path id="XMLID_38_" fill="#FFFFFF" d="M107.6,118.3c0,0.3-0.1,0.6-0.2,0.8c-0.3,1.1-0.9,1.8-1.5,1.7c-0.7-0.1-1.1-1-1.2-2.3
				c0-0.2,0-0.4,0-0.6c0.2-1.5,0.9-2.6,1.7-2.6c0.7,0.1,1.1,1,1.1,2.3C107.7,117.9,107.7,118.1,107.6,118.3z"/>
			<path id="XMLID_37_" fill="#FFFFFF" d="M101.9,121.4c0,0,2.7,0.2,4.7-0.4c0.5-0.1,0.9-0.4,0.9-0.4c0.3-0.1,0.5-0.3,0.6-0.4l0.1,0
				c0,0.1,0.1,0.1,0.1,0.2c0,0.1,0,0.2,0,0.3c-0.4,1.5-7,1.1-11.7,0.6c1.1,0.9,2.9,2.2,5.4,2.8c2.5,0.6,5.4,0.5,7.1-0.1l0.2,0
				c-0.8,6.5-10.5,7-12.7,1.1c-0.4-1.2-0.5-2.6-0.3-3.9c0-0.1-0.1-0.2-0.1-0.4l0.1,0C98.8,121.2,100.5,121.3,101.9,121.4z"/>
			<path id="XMLID_36_" fill="#FFFFFF" d="M95.4,118.4c3.8,1.4,6.9,0.5,9.4,0.2c0,1.2,0.5,2.2,1.2,2.3c0.6,0.1,1.2-0.7,1.5-1.7
				c0.2,0.4,0.5,0.8,0.7,1.2l-0.1,0c-0.1,0.1-0.4,0.2-0.6,0.4c0,0-0.4,0.2-0.9,0.4c-2,0.6-4.7,0.4-4.7,0.4c-1.4-0.1-3.1-0.2-5.6-0.4
				l-0.1,0c-0.2-0.8-0.4-1.7-0.6-2.5C95.6,118.5,95.5,118.5,95.4,118.4z"/>
		</g>
		<g>
		</g>
	</g>
	<line id="XMLID_73_" fill="none" stroke="#009062" stroke-miterlimit="10" x1="64.7" y1="88.5" x2="64.7" y2="88.5"/>
	<g id="XMLID_6_">
		<g>
			<path id="XMLID_13_" fill="#FFFFFF" d="M71.9,38.3c2.9,0.6,4.5,4.7,3.6,9.4c0,0.1,0,0.2-0.1,0.3c-0.3,0.5-0.3,0.8-0.8,1.6
				c-0.6,1.1-1,1.4-0.9,1.8c0,0.1,0.1,0.2,0.2,0.3c-1.4,2.3-3.4,3.7-5.4,3.3c-1.8-0.3-3.2-2.1-3.7-4.6c-0.3-1.4-0.3-3.1,0-4.8
				C65.9,41,68.9,37.7,71.9,38.3z"/>
			<path id="XMLID_12_" fill="#FFFFFF" d="M64.9,45.7c-0.3,1.7-0.3,3.4,0,4.8l-0.2,0c-0.6,0.3-1.6,0.6-2.7,0.9c-3.5,1-6.4,1-9,0.9
				c-5.2-0.1-9.8-0.5-13.6-0.9c-0.1,0-2-0.2-2.7-1.8c0-0.1-0.7-1.5,0-2.7c0.2-0.4,0.6-0.7,0.9-0.9c1.6-1,3.2-0.7,5.4-0.9
				c0.7-0.1,1.7-0.4,3.6-0.9c4.4-1.2,9.4-3.5,11.8-4.5c5.5-2.5,11.6-5.3,14.5-4.5c2.1,0.5,3.6,1.8,3.6,1.8c0.4,0.3,0.7,0.7,0.9,0.9
				c0.3,0.4,0.7,1,0.9,1.8c0.5,1.5,0.2,2.8,0,3.6c-0.2,0.8-0.6,2.5-1.8,3.6c-0.3,0.2-0.6,0.4-0.9,0.9c0,0.1-0.1,0.1-0.1,0.2
				c0-0.1,0-0.2,0.1-0.3c0.9-4.6-0.7-8.8-3.6-9.4C68.9,37.7,65.9,41,64.9,45.7z"/>
			<path id="XMLID_11_" fill="#FFFFFF" d="M74.7,49.6c0.4-0.8,0.4-1.1,0.8-1.6c-0.3,1.4-0.8,2.7-1.5,3.7c-0.1-0.1-0.2-0.2-0.2-0.3
				C73.6,51,74.1,50.7,74.7,49.6z"/>
			<path id="XMLID_10_" fill="#FFFFFF" d="M68.6,55c2,0.4,4-1,5.4-3.3c0.2,0.2,0.5,0.3,0.7,0.6c0.2,0.3,0.2,0.6,0.2,0.9l-0.2,0
				c-0.2,0.2-0.5,0.5-0.8,0.7c-0.5,0.4-1,0.6-1.4,0.8c0,0-1.3,0.6-2.7,1c-5.8,1.7-13.3,1.1-13.4,1c-4.8,0-10.1-0.3-16.1-1l-0.2,0
				c-0.2-1.5-0.5-2.9-0.7-4.4c3.7,0.4,8.4,0.8,13.6,0.9c2.7,0.1,5.5,0.1,9-0.9c1.1-0.3,2.1-0.7,2.7-0.9l0.2,0
				C65.4,52.9,66.7,54.7,68.6,55z"/>
			<path id="XMLID_5_" fill="#FFFFFF" d="M56.6,63.5c8.1,1.6,17.4,1.1,21.8-0.8c-1,19.8-28.9,23.1-36.4,5.8c-1.6-3.6-2.1-7.7-1.6-11.6
				C43.9,59.2,49.4,62.1,56.6,63.5z"/>
			<path id="XMLID_4_" fill="#FFFFFF" d="M78.4,62.7c-4.5,1.9-13.8,2.4-21.8,0.8c-7.2-1.4-12.6-4.3-16.2-6.6c0,0,0,0-0.1,0
				c5.2,0.3,10.3,0.6,15.4,0.9c0.3,0,3.3,0.2,7.2,0c0.4,0,3.5-0.2,6.3-0.9c0.6-0.2,1.3-0.4,2.7-0.9c0.7-0.2,1.2-0.5,1.8-0.9
				c0.4-0.3,0.7-0.7,0.9-0.9c5.6,3.1,6.6,5,6.3,6.3C80.8,61.3,79.8,62,78.4,62.7z"/>
			<path id="XMLID_3_" fill="#FFFFFF" d="M69.8,55.8c1.4-0.4,2.7-1,2.7-1c0.4-0.2,0.9-0.4,1.4-0.8c0.3-0.2,0.6-0.5,0.8-0.7l0.2,0
				c0,0.3-0.1,0.6-0.2,0.9c-0.2,0.2-0.5,0.6-0.9,0.9c-0.6,0.5-1.1,0.7-1.8,0.9c-1.4,0.5-2.1,0.8-2.7,0.9c-2.8,0.7-5.9,0.9-6.3,0.9
				c-3.9,0.2-6.9,0-7.2,0c-5-0.3-10.2-0.6-15.4-0.9c-0.1-0.3-0.1-0.7-0.2-1l0.2,0c5.9,0.7,11.3,1,16.1,1
				C56.4,56.8,64,57.4,69.8,55.8z"/>
		</g>
		<g>
		</g>
	</g>
	<path fill="#FFFFFF" d="M61.5,51.8c1.4,0.5,2.7,0.9,4.1,1.4"/>
	<path id="XMLID_71_" fill="#FFFFFF" d="M77.4,38.7c-0.6-0.8-1.7-2.1-3.6-2.7c-1.1-0.4-2.3-0.4-4.5,0c-4,0.8-5.8,2.3-10.9,4.5
		c-1.1,0.5-2.6,1.1-4.5,1.8C51.7,43.1,43,46.1,40.3,46c-0.3,0-1.8-0.2-2.5,0.7c0,0,0,0,0,0l0,0c-0.4,0.4-0.7,0.7-1.1,1.1"/>
	<path id="XMLID_70_" fill="#FFFFFF" d="M75.6,55.9c2.1,1.1,4.3,2.7,4.1,4.1c-0.4,2.9-10.8,3.6-11.8,3.6c-4.7,0.3-12.3-0.1-21.7-4.5"/>
	<path id="XMLID_69_" fill="#FFFFFF" d="M75.1,56.4c0.2,0.1,2.4,0.9,2.7,2.7c0,0.2,0.1,0.5,0,0.9"/>
	<path id="XMLID_68_" fill="#FFFFFF" d="M64.3,62.7c-2.1-0.1-4.6-0.4-7.2-0.9c-3.5-0.7-6.6-1.7-9-2.7"/>
	<g>
		<path fill="#00935A" d="M414.7,100.6V118c-10.5-5.3-18.9-8-25.1-8c-3.6,0-6.4,0.7-8.5,2c-2.1,1.3-3.1,3.1-3.1,5.3
			c0,1.7,0.8,3.3,2.3,4.9c1.5,1.5,5.2,3.5,11.1,5.9c5.9,2.4,10.5,4.7,14.1,6.8c3.5,2.1,6.5,5,9.1,8.8c2.6,3.8,3.8,8.6,3.8,14.4
			c0,8.3-2.8,14.8-8.4,19.7c-5.6,4.9-12.9,7.3-22,7.3c-9.8,0-19.4-2.9-28.6-8.6v-19.2c5.3,4,10,6.9,14.1,8.8c4.1,1.8,8.4,2.7,13,2.7
			c7.7,0,11.6-2.7,11.6-8.2c0-1.9-0.8-3.6-2.3-5.3c-1.6-1.7-5.3-3.7-11.2-6.1c-5.9-2.4-10.6-4.6-14.1-6.6c-3.5-2-6.4-5-9-8.8
			c-2.5-3.8-3.8-8.6-3.8-14.6c0-7.7,2.7-13.9,8.2-18.6c5.5-4.7,12.8-7.1,22-7.1C396.4,93.7,405.3,96,414.7,100.6z"/>
		<path fill="#00935A" d="M489.7,167.8v16.4h-58.4V94.9h57.6v16.4h-37.9v18.7h36.1v16.4h-36.1v21.5H489.7z"/>
		<path fill="#00935A" d="M504.8,94.9h35.4c7.7,0,13.9,2.5,18.7,7.5c4.8,5,7.2,11.1,7.2,18.2c0,9.8-4.5,17.1-13.6,21.8
			c4,2,7.8,7.5,11.3,16.5c3.6,8.9,7,17.4,10.4,25.3h-21.6c-1.3-2.9-3.5-8.5-6.8-16.8c-3.2-8.3-6-13.6-8.2-15.9
			c-2.3-2.3-4.7-3.5-7.3-3.5h-5.7v36.2h-19.7V94.9z M524.5,111.2v20.3H535c3.3,0,6-0.9,7.9-2.7c1.9-1.8,2.9-4.3,2.9-7.6
			c0-6.7-3.8-10.1-11.3-10.1H524.5z"/>
	</g>
	<g>
		<path fill="#FFFFFF" d="M196.4,128L222.2,95h17.4v89.3h-20.1v-55.7l-21.7,28h-3l-21.7-28v55.7h-20.1V95h17.4L196.4,128z"/>
		<path fill="#FFFFFF" d="M317.2,95h20.1v50.7c0,13-3.5,22.9-10.4,29.6c-7,6.7-16.9,10.1-29.8,10.1c-12.8,0-22.7-3.4-29.7-10.2
			c-7-6.8-10.6-16.6-10.6-29.4V95h20.1v51.3c0,6.2,1.8,11.2,5.5,15c3.7,3.7,8.5,5.6,14.4,5.6c6.2,0,11.1-1.9,14.8-5.8
			c3.7-3.8,5.6-9.3,5.6-16.4V95z"/>
	</g>
	<g>
		<path fill="#FFFFFF" d="M592.4,95h34.8c7.9,0,14.2,2.6,18.8,7.9c4.7,5.2,7,11.4,7,18.6c0,7.4-2.3,13.8-6.9,19
			c-4.6,5.3-10.9,7.9-18.8,7.9h-15.5v35.8h-19.4V95z M611.8,111.3V132h9c8.1,0,12.1-3.5,12.1-10.4c0-3.9-1.1-6.6-3.2-8.1
			c-2.2-1.5-5.8-2.3-11.1-2.3H611.8z"/>
		<path fill="#FFFFFF" d="M707.9,93.8c13.3,0,24,4.6,32.3,13.8c8.2,9.2,12.3,19.9,12.3,32c0,12.4-4.2,23.1-12.5,32.1
			c-8.3,9.1-19,13.6-32.1,13.6c-13.2,0-24-4.5-32.3-13.5c-8.3-9-12.4-19.8-12.4-32.2c0-12.2,4.1-22.9,12.4-32.1
			C683.8,98.4,694.6,93.8,707.9,93.8z M707.9,166.8c7.4,0,13.3-2.5,17.8-7.5c4.5-5,6.8-11.6,6.8-19.7c0-8.2-2.3-14.8-6.8-19.7
			c-4.5-5-10.4-7.5-17.8-7.5c-7.4,0-13.4,2.5-17.9,7.5c-4.5,5-6.8,11.6-6.8,19.7c0,8.1,2.3,14.7,6.8,19.7
			C694.5,164.3,700.5,166.8,707.9,166.8z"/>
		<path fill="#FFFFFF" d="M826,167.9v16.4h-59.5V95H786v72.9H826z"/>
	</g>
</g>
</svg>
